<mxfile host="app.diagrams.net" modified="2023-05-13T05:09:11.535Z" agent="Mozilla/5.0 (Windows NT 10.0; Win64; x64) AppleWebKit/537.36 (KHTML, like Gecko) Chrome/113.0.0.0 Safari/537.36" version="21.3.0" etag="04rgUEg-UquaS7sLbLv7" type="github">
  <diagram name="Страница 1" id="0DP7qlnoVnT0pCr1qBdJ">
    <mxGraphModel>
      <root>
        <mxCell id="0" />
        <mxCell id="1" parent="0" />
      </root>
    </mxGraphModel>
  </diagram>
</mxfile>
